HIERARCHY
ROOT hip
{
	OFFSET 0.000000 0.000000 0.000000 
	CHANNELS 6 Xposition Yposition Zposition Xrotation Zrotation Yrotation
	JOINT abdomen
	{
		OFFSET 0.000000 3.402643 0.000000 
		CHANNELS 3 Xrotation Zrotation Yrotation
		JOINT chest
		{
			OFFSET 0.000000 8.438565 -0.680529 
			CHANNELS 3 Xrotation Zrotation Yrotation
			JOINT neck
			{
				OFFSET 0.000000 10.207942 -0.272212 
				CHANNELS 3 Xrotation Zrotation Yrotation
				JOINT head
				{
					OFFSET 0.000000 3.130431 0.000000 
					CHANNELS 3 Xrotation Zrotation Yrotation
					End Site
					{
						OFFSET 0.000000 3.130435 0.000000 
					}
				}
			}
			JOINT lCollar
			{
				OFFSET 3.470700 6.669187 -0.816635 
				CHANNELS 3 Yrotation Zrotation Xrotation
				JOINT lShldr
				{
					OFFSET 3.198488 0.000000 0.000000 
					CHANNELS 3 Zrotation Yrotation Xrotation
					JOINT lForeArm
					{
						OFFSET 10.139888 0.000000 0.000000 
						CHANNELS 3 Yrotation Zrotation Xrotation
						JOINT lHand
						{
							OFFSET 8.370511 0.000000 0.000000 
							CHANNELS 3 Zrotation Yrotation Xrotation
							End Site
							{
								OFFSET 4.083176 0.000000 0.000000 
							}
						}
					}
				}
			}
			JOINT rCollar
			{
				OFFSET -3.470700 6.669187 -0.816635 
				CHANNELS 3 Yrotation Zrotation Xrotation
				JOINT rShldr
				{
					OFFSET -3.198488 0.000000 0.000000 
					CHANNELS 3 Zrotation Yrotation Xrotation
					JOINT rForeArm
					{
						OFFSET -10.139888 0.000000 0.000000 
						CHANNELS 3 Yrotation Zrotation Xrotation
						JOINT rHand
						{
							OFFSET -8.370511 0.000000 0.000000 
							CHANNELS 3 Zrotation Yrotation Xrotation
							End Site
							{
								OFFSET -4.083176 0.000000 0.000000 
							}
						}
					}
				}
			}
		}
	}
	JOINT lThigh
	{
		OFFSET 5.308129 -1.633274 1.361059 
		CHANNELS 3 Xrotation Zrotation Yrotation
		JOINT lShin
		{
			OFFSET -2.041588 -20.007561 0.000000 
			CHANNELS 3 Xrotation Zrotation Yrotation
			JOINT lFoot
			{
				OFFSET 0.000000 -19.190928 -1.224953 
				CHANNELS 3 Xrotation Yrotation Zrotation
				End Site
				{
					OFFSET 0.000000 -2.449906 4.627600 
				}
			}
		}
	}
	JOINT rThigh
	{
		OFFSET -5.308129 -1.633274 1.361059 
		CHANNELS 3 Xrotation Zrotation Yrotation
		JOINT rShin
		{
			OFFSET 2.041588 -20.007561 0.000000 
			CHANNELS 3 Xrotation Zrotation Yrotation
			JOINT rFoot
			{
				OFFSET 0.000000 -19.190928 -1.224953 
				CHANNELS 3 Xrotation Yrotation Zrotation
				End Site
				{
					OFFSET 0.000000 -2.449906 4.627600 
				}
			}
		}
	}
}
MOTION
Frames: 15
Frame Time: 0.033333
-1.737462 49.275455 -0.689799 0.983249 -0.097608 1.806638 0.000000 0.000000 0.000000 0.725342 4.599202 0.764747 4.278059 2.394337 4.682209 14.730394 -1.560733 2.725459 -3.756470 -1.472827 1.306331 -67.762932 4.495074 2.816676 -61.192593 -4.357439 -39.594017 -19.001286 8.981604 -4.518607 12.469938 15.883301 -0.813833 50.006836 -5.432186 13.539368 55.886158 3.879202 -36.376389 -1.948225 -9.283360 -3.487252 -13.842724 13.637646 1.409248 27.720041 4.549146 4.010087 -1.209514 0.208794 -18.721395 -7.934808 -4.401712 -2.605967 23.357653 4.906068 -3.724689 -16.210447 -0.086775 0.360668 
-2.067264 49.272846 -0.677477 0.810412 0.146167 3.769544 0.000000 0.000000 0.000000 0.954055 4.667512 0.803688 4.529977 2.345507 4.730587 15.361744 -1.258422 2.646918 -3.765101 -1.321195 1.520617 -68.373878 4.368919 3.746355 -66.767128 -3.778433 -41.505795 -20.528900 7.570351 -4.317317 12.082052 15.548606 -0.517781 47.992222 -4.475124 19.109303 61.082764 3.270874 -39.021790 -1.706234 -6.585400 -3.513408 -16.904121 12.831913 1.005620 31.150013 4.300192 9.585424 2.448092 -0.388799 -19.126345 -7.602048 -3.932807 -2.273272 23.439438 4.513422 -5.815616 -16.531027 -0.103787 0.694029 
-2.357045 49.306931 -0.648879 0.682250 0.378987 5.683727 0.000000 0.000000 0.000000 1.123548 4.686996 0.843419 5.002746 2.354972 4.809047 15.408581 -1.277881 2.695948 -3.720790 -1.047574 1.686118 -68.700172 4.222466 4.851229 -71.191864 -3.250030 -42.476513 -22.106451 5.878267 -4.022723 11.675727 15.048384 -0.248665 46.562225 -3.653583 23.712915 66.423874 2.157154 -42.843357 -1.860297 -4.509723 -3.507349 -18.419643 11.772028 1.398163 31.302372 3.535025 18.677614 5.819368 -0.927812 -18.382799 -7.035400 -3.717770 -2.330498 23.088722 4.552302 -7.579056 -16.618658 -0.102601 0.727988 
-2.605023 49.316959 -0.526823 0.575619 0.580780 7.607821 0.000000 0.000000 0.000000 1.087839 4.696712 0.882352 5.375893 2.393999 4.779780 15.488721 -1.843631 2.715950 -3.878255 -1.030006 1.646845 -68.624489 4.435268 6.545907 -75.435532 -2.874137 -46.162003 -20.666769 5.096645 -3.827498 11.191049 14.117910 -0.118639 46.418705 -3.800769 26.173582 71.144203 1.002532 -45.352417 -3.960630 -3.891615 -3.502068 -18.743185 10.903916 2.443969 29.139769 1.942263 24.989439 6.376956 -0.847935 -15.444176 -6.615289 -3.444219 -2.342167 22.927456 4.515018 -9.975318 -16.821609 -0.152626 1.010211 
-2.782152 49.296768 -0.350663 0.627878 0.943710 9.571735 0.000000 0.000000 0.000000 1.025818 4.628396 0.853143 5.261839 2.072795 4.798136 15.930653 -1.989934 2.726017 -4.057427 -1.303825 1.578513 -68.048759 4.785062 8.504639 -79.476227 -2.462638 -50.615448 -17.391495 4.045928 -3.599653 10.649100 13.385063 -0.020934 46.381287 -3.411178 28.155212 74.122124 -0.037627 -46.557514 -1.282616 -3.151476 -3.499645 -19.794794 9.912124 3.064909 28.377832 -0.082410 22.522673 5.108210 -0.513703 -11.830706 -6.333175 -3.415234 -2.428496 23.156828 4.381705 -11.617329 -17.306959 -0.208986 1.311982 
-2.894351 49.215233 -0.170375 1.370641 0.822569 11.641932 0.000000 0.000000 0.000000 0.315132 4.706751 0.627700 4.897935 2.063210 4.749338 15.632856 -2.389614 2.853967 -4.294496 -1.351146 0.954756 -67.809883 5.540957 10.226945 -82.661316 -2.176994 -54.654884 -14.642650 1.598269 -3.241174 10.709376 13.109889 -0.671090 46.149040 -4.096046 29.032743 77.162270 -0.864894 -47.758461 -0.755740 -3.441838 -3.513375 -21.710476 8.902209 3.480884 27.092503 -2.088057 19.773399 4.284670 -0.285162 -7.756512 -6.884626 -3.281196 -2.558427 23.721870 4.615055 -13.347221 -18.075039 -0.258866 1.596778 
-2.946926 49.142361 0.108715 1.640817 0.998203 13.224868 0.000000 0.000000 0.000000 0.072431 4.511138 0.921269 4.500685 2.092347 4.768858 15.659903 -3.052930 2.826058 -4.240519 -1.438817 0.701462 -67.736145 5.838395 11.753187 -84.403870 -2.083356 -59.578278 -13.162601 0.933800 -3.175667 11.097320 13.397384 -0.937985 45.845055 -5.386415 28.331882 79.746201 -1.533217 -48.015972 -0.117557 -3.656671 -3.510793 -21.794994 7.440866 3.833015 23.393501 -3.899348 19.800913 4.405549 -0.145189 -3.692757 -6.977554 -2.986233 -2.130430 24.342283 3.982930 -15.119351 -18.716017 -0.427345 2.425763 
-2.970539 49.057945 0.449732 1.745742 1.475666 14.389701 0.000000 0.000000 0.000000 0.069184 4.090837 1.244040 4.273744 1.595178 5.119277 15.231629 -3.013890 2.835813 -3.833383 -2.162366 0.643728 -67.519638 5.994948 12.555500 -85.833771 -1.985561 -61.776573 -10.790215 -1.589609 -2.957628 11.434122 13.067561 -0.895150 46.496861 -5.878641 27.102713 80.986702 -1.847760 -47.673100 0.336230 -3.423388 -3.500517 -19.161339 5.826744 4.054937 15.290127 -5.672438 21.319168 5.268780 0.034860 0.596541 -6.745267 -3.289697 -2.386022 25.136335 3.974432 -15.790721 -19.697205 -0.527924 2.728745 
-2.945104 49.000584 0.794405 2.124538 1.488666 15.249524 0.000000 0.000000 0.000000 -0.249705 3.914427 1.635054 4.007902 1.438448 5.587850 14.876227 -3.335386 2.963627 -3.404565 -2.469767 0.312498 -67.733597 6.463834 13.052609 -86.470207 -1.772301 -61.119984 -7.854052 -0.526691 -3.170710 12.046545 13.019612 -1.227535 47.185097 -6.811585 25.439800 81.962784 -2.032491 -47.135281 1.344090 -3.773331 -3.509642 -17.195074 4.950721 3.684364 7.926825 -6.317680 26.352724 6.949167 -0.050859 -0.607975 -6.656400 -3.191673 -2.342509 25.335804 3.878308 -16.905907 -20.262358 -0.565344 3.168404 
-2.902787 48.963203 1.217920 2.171551 1.108152 15.921145 0.000000 0.000000 0.000000 -0.430058 3.991817 1.957902 3.753065 1.398277 6.105504 14.764673 -3.422663 3.120749 -2.944622 -2.456695 0.107600 -68.357147 7.136570 12.988072 -86.884781 -1.630598 -60.204811 -5.515004 0.309327 -3.306535 12.654269 13.399926 -1.491324 47.655621 -7.463291 24.099333 82.738121 -2.199941 -46.690453 2.222274 -3.916409 -3.525168 -17.446520 4.432253 3.055096 5.994219 -5.898600 30.700686 5.677271 0.099712 1.734024 -5.931846 -2.653727 -2.187435 24.891043 3.900313 -17.774645 -20.646208 -0.647665 3.457587 
-2.826073 48.928478 1.734301 2.278511 0.571188 16.495049 0.000000 0.000000 0.000000 -0.847397 4.030465 2.115138 3.522749 1.445879 6.447441 14.707040 -3.665593 3.355860 -2.540775 -2.400015 -0.273339 -68.950584 8.077581 12.913501 -87.578339 -1.535432 -60.707241 -3.039854 0.457139 -3.378383 12.957529 13.410494 -1.901738 48.605171 -8.006930 23.363026 83.588615 -2.411704 -46.096050 2.975147 -3.618039 -3.515389 -18.591488 4.237788 2.478612 7.644001 -4.948993 34.870720 4.602618 0.096183 1.955883 -5.023365 -2.058033 -2.034473 24.109545 3.905235 -18.370018 -20.981701 -0.702489 3.696113 
-2.674014 48.911491 2.313685 2.157191 0.476329 16.983032 0.000000 0.000000 0.000000 -1.070623 3.718060 2.163157 3.335465 1.202572 6.739865 15.119296 -3.557511 3.580653 -2.329728 -2.870488 -0.497993 -69.379776 9.354064 12.315537 -88.534775 -1.464101 -61.876152 -1.736784 1.559277 -3.445620 13.169878 13.399765 -2.096886 49.366745 -8.180484 23.340702 84.286896 -2.612660 -45.744411 2.824931 -2.746723 -3.485173 -18.736744 4.188637 2.439749 9.724594 -4.610070 35.056416 4.109488 0.137307 2.921326 -3.639263 -1.814829 -1.904745 23.262798 3.754979 -18.707060 -21.343813 -0.785809 4.018883 
-2.482311 49.014046 2.865486 2.309215 1.133850 17.884583 0.000000 0.000000 0.000000 -1.312391 2.722993 1.975068 3.359497 0.514237 6.514022 14.912707 -3.225955 3.628289 -2.437824 -4.118356 -0.762586 -68.742577 10.492814 12.491851 -89.155914 -1.346800 -62.955376 -1.376474 1.746990 -3.449142 12.815572 12.736019 -2.104286 50.902901 -8.001549 23.405930 84.564430 -2.793660 -45.479633 3.148745 -2.933179 -3.491743 -17.395674 3.396759 2.258877 8.601008 -4.575744 35.519848 5.216464 0.117905 1.866187 -1.726281 -2.311263 -1.951289 21.460831 3.415798 -18.542736 -21.358921 -0.787604 4.141549 
-2.246516 49.107792 3.405117 2.370764 1.398901 18.443251 0.000000 0.000000 0.000000 -1.561561 2.186071 2.072158 3.287785 -0.116465 6.367195 14.785905 -3.032066 3.304937 -2.623643 -4.788682 -1.007853 -68.362030 11.553462 12.736710 -89.267441 -1.210770 -61.905651 -2.303908 2.699358 -3.475878 12.530876 11.743313 -2.127856 52.987492 -8.100412 23.305853 85.090302 -2.930583 -45.197819 3.019614 -3.703264 -3.522768 -16.497423 2.947736 2.150673 8.113249 -4.557008 35.784683 5.362434 0.100247 1.438639 0.331242 -2.469257 -1.817969 19.232546 2.984703 -17.999676 -21.064663 -0.797656 4.178122 
-1.919959 49.201046 3.971105 2.759358 1.368674 18.745888 0.000000 0.000000 0.000000 -2.182732 1.863801 2.247446 2.830967 -0.533786 6.377222 15.135486 -3.354185 3.188991 -2.618831 -5.221421 -1.616390 -68.056404 12.693739 13.665215 -90.026062 -0.941124 -62.803051 -1.868437 3.243149 -3.499985 12.767333 11.034483 -2.606875 54.495850 -8.867724 23.485077 86.140373 -3.112366 -44.726574 2.584106 -3.445206 -3.511787 -16.217024 2.557862 2.061432 8.152310 -4.634795 36.000938 4.411409 0.085343 2.046279 2.099174 -2.860956 -2.215290 16.616089 3.238767 -18.083508 -20.526947 -0.780694 4.173061 
